<?xml version="1.0" encoding="UTF-8" standalone="no"?>
<svg width="83px" height="84px" viewBox="0 0 83 84" version="1.1" xmlns="http://www.w3.org/2000/svg" xmlns:xlink="http://www.w3.org/1999/xlink" xmlns:sketch="http://www.bohemiancoding.com/sketch/ns">
    <!-- Generator: Sketch 3.3 (11970) - http://www.bohemiancoding.com/sketch -->
    <title>bolo</title>
    <desc>Created with Sketch.</desc>
    <defs>
        <linearGradient x1="16.0505285%" y1="50.7922377%" x2="83.9494715%" y2="50.7922377%" id="linearGradient-1">
            <stop stop-color="#FF004F" offset="0%"></stop>
            <stop stop-color="#FF0074" offset="100%"></stop>
        </linearGradient>
    </defs>
    <g id="Page-1" stroke="none" stroke-width="1" fill="none" fill-rule="evenodd" sketch:type="MSPage">
        <g id="Portrait" sketch:type="MSArtboardGroup" transform="translate(-197.000000, -613.000000)">
            <g id="logo_CHH" sketch:type="MSLayerGroup" transform="translate(197.000000, 613.000000)">
                <g id="bolo" sketch:type="MSShapeGroup">
                    <path d="M22.5997956,26.334175 C20.8449285,25.7359282 18.8295618,25.4128526 16.5503747,25.4039402 C15.9939534,25.4039402 15.4467566,25.4288207 14.9157949,25.4711547 C13.792621,28.0375632 13.7771238,30.7339446 16.1906195,32.7659786 C18.772001,34.9491526 21.3102118,33.9810399 23.7222316,32.0132496 L31.2538436,38.3700403 C30.9841195,35.793234 30.3129456,33.5673546 29.2454875,31.7180254 C26.6799722,30.7454565 24.311861,28.9551721 22.5997956,26.334175" id="Fill-1" fill="#FF6595"></path>
                    <path d="M10.6330485,46.7640639 C10.2511546,45.4442815 10.0847448,43.9807863 10.0847448,42.5429142 C10.0847448,41.2030789 10.2286468,39.8554453 10.5474452,38.6229305 C7.54432006,35.8667615 5.82192319,32.7147322 5.24225621,29.4427563 C1.94505431,32.4488447 0.069899875,36.9915845 0.069899875,42.5429142 C0.069899875,48.1131829 2.05722412,52.9552318 5.76177951,56.060471 C6.20861384,52.7138535 7.83950376,49.5142912 10.6330485,46.7640639" id="Fill-2" fill="#FF6595"></path>
                    <path d="M23.1307572,58.3647055 C24.6406218,55.6040803 26.809853,53.7280138 29.5521096,52.7138535 C30.7638387,50.6465411 31.391473,48.3333942 31.391473,46.0651808 L23.9277532,52.3696109 C23.1853662,51.7089771 20.9973171,50.111424 18.463534,51.0799081 C18.4133528,51.1111016 18.3476744,51.1270697 18.2915895,51.153807 C17.8178197,51.3569361 17.3351943,51.6569879 16.8429755,52.0677024 C14.3412937,54.181805 14.4449769,57.0033318 15.6910211,59.6529229 C15.9696007,59.6633208 16.2599877,59.6722332 16.5503747,59.6722332 C19.0395112,59.6722332 21.2353089,59.1902193 23.1307572,58.3647055" id="Fill-3" fill="#FF6595"></path>
                    <path d="M20.9500877,65.831465 C19.821748,65.0739084 18.7583487,64.0642044 17.8362686,62.950522 C16.9868776,61.9311628 16.2289934,60.8111675 15.6910211,59.6529229 C11.6318763,59.4917565 8.29371768,58.1879423 5.76177951,56.060471 C5.15886681,60.4906913 6.62039509,65.1841998 10.1644444,69.4346861 C13.7273116,73.7044828 18.3447226,76.1301491 23.1632274,76.1089821 C21.3699865,73.2555191 20.5737285,69.7551622 20.9500877,65.831465" id="Fill-4" fill="#FF6595"></path>
                    <path d="M21.5544763,46.0651808 L31.391473,46.0651808 C29.5366124,44.2730397 27.6009453,42.9970768 25.6010758,42.2714565 C23.0189564,43.186466 20.0612158,43.3465183 17.069898,42.4463629 C15.3427044,43.1211081 13.5992757,44.1816873 11.8436706,45.6451826 C11.42082,46.0053933 11.0156803,46.3778586 10.6330485,46.7640639 C11.4152853,49.4463339 13.1288266,51.520702 16.2758538,51.520702 C17.050342,51.520702 17.7163503,51.3918431 18.2915895,51.153807 C18.3476744,51.1270697 18.4081871,51.1029318 18.463534,51.0799081 C20.2689513,50.2670202 21.1172354,48.3590175 21.5544763,46.0651808" id="Fill-5" fill="#FF6595"></path>
                    <path d="M37.9397543,66.6372972 C37.3342588,63.5450553 37.7869968,60.7031043 39.249263,58.1600909 C38.8548238,55.7971829 37.8611617,53.6117809 36.4092269,51.8797986 L34.7189312,61.5252759 C33.5226993,61.5029948 29.8207267,61.7766807 29.1030614,65.8830828 C28.5355707,69.1223797 30.4107252,71.2082597 33.0618437,72.4407745 C33.2909801,72.2606691 33.5112609,72.0887335 33.7322797,71.8986016 C35.6384284,70.2921361 37.0150914,68.4992523 37.9397543,66.6372972" id="Fill-6" fill="#FF6595"></path>
                    <path d="M41.0384452,73.7668698 C39.6865039,73.92358 38.2308793,73.8285141 36.8162114,73.5748812 C35.5103925,73.3446434 34.2130602,72.9729208 33.0618437,72.4407745 C29.8495072,74.9377402 26.4585844,76.1011837 23.1632274,76.1089821 C25.5350284,79.8945367 29.6513651,82.5441278 35.0742586,83.5044422 C40.5362639,84.4762684 45.6152684,83.3388195 49.2925193,80.212042 C46.1041664,79.1845131 43.2560127,77.0143364 41.0384452,73.7668698" id="Fill-7" fill="#FF6595"></path>
                    <path d="M29.5521096,52.7138535 C28.1566287,55.0838172 25.9896113,57.118822 23.1307572,58.3647055 C22.2385645,59.9986509 21.577722,61.9404466 21.1740583,64.1934346 C21.0722199,64.746748 21.0024828,65.2948624 20.9500877,65.831465 C23.2691246,67.3851986 25.904377,67.8653558 28.313814,65.8277515 C30.8974093,63.6434634 30.3841586,60.9715912 28.874294,58.2358466 L36.4092269,51.8745997 L36.4092269,51.8797986 L36.4151305,51.8745997 C33.8470324,51.6937517 31.5493963,51.9685516 29.5521096,52.7138535" id="Fill-8" fill="#FF6595"></path>
                    <path d="M54.5659761,63.3931727 C52.1296036,61.4253824 50.6640166,58.942528 50.1522418,56.0523012 C48.3405519,54.4963395 46.1857109,53.4632404 43.9699883,53.075921 L48.8386744,61.5635251 C48.0649241,62.1892519 46.111177,64.0809152 46.6329142,66.7572436 C46.6509942,66.8181452 46.6616946,66.8719912 46.6698122,66.9392057 C46.7897306,67.4435007 46.9945142,67.9752757 47.3184783,68.5289604 C48.9504752,71.3772245 51.723726,71.7645438 54.5371957,70.9951041 C54.5954944,70.7121344 54.6545312,70.4365918 54.7058193,70.1435956 C55.1334667,67.6833936 55.0452806,65.4125808 54.5659761,63.3931727" id="Fill-9" fill="#FF6595"></path>
                    <path d="M65.2357598,50.152644 C62.1038608,50.2239434 59.400716,49.2703134 57.156213,47.3871913 C54.7792463,47.3600826 52.4716477,47.9765257 50.5204835,49.1054335 L59.6778197,52.4579925 C59.4815226,53.4402166 59.1970393,56.1581364 61.3083407,57.8670948 C61.3529872,57.8979169 61.393575,57.9380229 61.4393285,57.9744153 C61.8547995,58.2818941 62.3580877,58.5607789 62.9565727,58.7835897 C66.0301729,59.9061845 68.3993911,58.4081536 70.0597994,55.9995694 C69.9306565,55.7425943 69.7930271,55.4923036 69.650601,55.2386707 C68.4034498,53.0699794 66.8895264,51.3951853 65.2357598,50.152644" id="Fill-10" fill="#FF6595"></path>
                    <path d="M42.2634575,62.8209204 L43.9699883,53.075921 C41.8885742,54.595119 40.3038068,56.3022206 39.249263,58.1600909 C39.6913006,60.8720691 39.3363422,63.8276536 37.9397543,66.6372972 C38.2976646,68.4673161 39.0334099,70.3801464 40.1591668,72.3728172 C40.445126,72.8607727 40.734406,73.3268185 41.0384452,73.7668698 C43.8076373,73.4627331 46.1329468,72.1251259 46.6768228,69.0013192 C46.8137142,68.22928 46.798955,67.5411661 46.6698122,66.9392057 C46.6616946,66.8719912 46.6465665,66.8181452 46.6329142,66.7572436 C46.1488129,64.8314161 44.4319508,63.6594315 42.2634575,62.8209204" id="Fill-11" fill="#FF6595"></path>
                    <path d="M61.4946754,66.8567658 C60.5530394,67.8419606 59.3796842,68.7187209 58.1399127,69.4346861 C56.9968138,70.1034897 55.7651598,70.6597739 54.5371957,70.9951041 C53.6767352,74.9878727 51.814864,78.0708307 49.2925193,80.212042 C53.5332021,81.5741584 58.3756907,80.9469461 63.1473351,78.1681247 C67.9437012,75.3792769 71.1191398,71.2283126 71.9360607,66.4519929 C68.835156,67.7279558 65.2645402,67.9095465 61.4946754,66.8567658" id="Fill-12" fill="#FF6595"></path>
                    <path d="M55.4386129,57.6747348 L50.5204835,49.1054335 C49.9005977,51.617996 49.7773585,53.9485964 50.1522418,56.0523012 C52.2273832,57.8418429 53.842776,60.3395514 54.5659761,63.3931727 C56.0116382,64.5636718 57.7989755,65.5588932 59.9290949,66.3524708 C60.4556288,66.5452021 60.977735,66.7111961 61.4946754,66.8567658 C63.4192731,64.8254744 64.3424601,62.2988006 62.770238,59.5522867 C62.3769057,58.8745707 61.9333922,58.3606206 61.4393285,57.9744153 C61.393575,57.9435931 61.3529872,57.8979169 61.3083407,57.8670948 C59.7006965,56.6995665 57.6351486,56.9138361 55.4386129,57.6747348" id="Fill-13" fill="#FF6595"></path>
                    <path d="M64.9542283,33.1146774 C62.5920208,35.1949871 59.9169185,36.2113755 56.9968138,36.2210306 C55.1508088,37.7387432 53.7789425,39.6991064 53.0066682,41.8243496 L62.1625285,38.4725332 C62.6385122,39.3500362 64.1509597,41.6074805 66.8603771,41.5569767 L67.0400701,41.5569767 C67.5551657,41.5231837 68.1130629,41.4117783 68.7185584,41.1956519 C71.7877309,40.0689722 72.6459775,37.3844741 72.3788363,34.4597117 C72.1183367,34.3546193 71.8526713,34.2513836 71.5829472,34.1477766 C69.2417715,33.2925547 67.0090758,32.9917602 64.9542283,33.1146774" id="Fill-14" fill="#FF6595"></path>
                    <path d="M80.4934361,41.2572962 C78.9263797,44.2459311 76.3095762,46.6942498 72.7503987,48.3248532 C72.6670094,49.6962533 72.3186926,51.1166718 71.8279497,52.4717325 C71.3777946,53.7280138 70.7918549,54.9527302 70.0597994,55.9995694 C71.9534028,59.6139311 72.4983857,63.1733327 71.9360607,66.4519929 C76.0476006,64.7556604 79.354765,61.1353571 81.2402509,55.9204716 C83.1368061,50.6829336 82.9098836,45.447995 80.4934361,41.2572962" id="Fill-15" fill="#FF6595"></path>
                    <path d="M69.5365862,26.8455257 C70.3446516,27.949553 70.98889,29.2667358 71.4807399,30.6262527 C71.9360607,31.8739929 72.2637146,33.1911758 72.3788363,34.4597117 C76.1354178,36.0082464 78.8249103,38.3852657 80.4934361,41.2572962 C82.5608289,37.2949784 82.776313,32.3905425 80.8963618,27.1763997 C78.9986997,21.9355195 75.4841688,18.0671536 70.9523611,16.4324654 C71.6689195,19.726351 71.2239301,23.2954078 69.5365862,26.8455257" id="Fill-16" fill="#FF6595"></path>
                    <path d="M53.8468348,20.2455 C53.3638405,23.3496251 51.9687285,25.8681292 49.7367708,27.7664768 C49.3006369,30.1208437 49.4947202,32.5145738 50.2658876,34.6394457 L55.1334667,26.1484994 C56.0562848,26.5113096 58.658698,27.265524 60.7069039,25.4711547 C60.7471227,25.4325342 60.7932451,25.3976272 60.8393676,25.3586353 C61.2183097,25.0006527 61.5721611,24.5557739 61.8931734,23.9887206 C63.5259082,21.1467695 62.4680436,18.5331994 60.4010198,16.4729427 C60.1276059,16.5542686 59.8575128,16.6500772 59.5844679,16.7447718 C57.246982,17.605564 55.3467369,18.8187685 53.8468348,20.2455" id="Fill-17" fill="#FF6595"></path>
                    <path d="M69.0668752,41.9049328 C68.3314988,41.6442442 67.6606939,41.5320962 67.0400701,41.5569767 L66.8603771,41.5569767 C64.8867051,41.708488 63.4432568,43.208747 62.2462869,45.2136724 L53.0066682,41.8243496 C54.1372218,44.1490084 55.526799,46.0165338 57.156213,47.3871913 C59.8933038,47.4180134 62.732602,48.2851186 65.2357598,50.152644 C67.0898824,50.1181083 69.088645,49.7241047 71.2324166,48.9509514 C71.7574746,48.7567347 72.2629767,48.5465498 72.7503987,48.3248532 C72.9256641,45.5211512 72.0246158,42.9907638 69.0668752,41.9049328" id="Fill-18" fill="#FF6595"></path>
                    <path d="M59.5047683,31.2575499 L50.2658876,34.6394457 C52.6155498,35.6948259 54.8663255,36.2251155 56.9968138,36.2210306 C59.1106981,34.4701095 61.8396713,33.3022098 64.9542283,33.1146774 C66.3474954,31.882534 67.6300685,30.2905512 68.7764882,28.3056788 C69.0572817,27.8247789 69.3033911,27.3319958 69.5365862,26.8455257 C67.8846645,24.5884528 65.576328,23.2326494 62.6101008,24.3155097 C61.8857938,24.5825112 61.3013301,24.9416079 60.8393676,25.3586353 C60.7932451,25.3976272 60.7471227,25.435505 60.7069039,25.4711547 C59.2863324,26.864836 59.1413234,28.9510873 59.5047683,31.2575499" id="Fill-19" fill="#FF6595"></path>
                    <path d="M53.3571988,12.4738611 C54.6781459,12.7950799 56.0204937,13.3866425 57.264324,14.109292 C58.406316,14.7751248 59.5010785,15.5709305 60.4010198,16.4729427 C64.2682952,15.2229744 67.8455526,15.3076425 70.9523611,16.4324654 C70.0070353,12.0568337 67.0444979,8.15021854 62.2706395,5.38030959 C57.4687388,2.59109038 52.3067138,1.90186246 47.7940931,3.57851334 C50.4407839,5.64545438 52.3838306,8.65637029 53.3571988,12.4738611" id="Fill-20" fill="#FF6595"></path>
                    <path d="M37.1202506,17.5624872 C38.7441299,20.2584973 39.2743536,23.0945068 38.7777071,25.9858476 C39.9451586,28.0746983 41.620695,29.7795719 43.5729662,30.9118218 L41.8778738,21.2566894 C42.8191408,20.9362133 45.3005288,19.8273585 45.7156309,17.1268922 C45.7233794,17.0763885 45.732235,17.0225425 45.7425664,16.962755 C45.804186,16.4450913 45.7923786,15.8728391 45.6809468,15.2356003 C45.1138251,11.995932 42.6364959,10.6787492 39.7274606,10.4340287 C39.5787618,10.6787492 39.429694,10.9193848 39.285054,11.1793307 C38.0441756,13.3472792 37.3560286,15.4996311 37.1202506,17.5624872" id="Fill-21" fill="#FF6595"></path>
                    <path d="M48.4885127,22.3436345 L43.5729662,30.9118218 C46.0443917,30.1977134 48.1095707,29.1445613 49.7367708,27.7664768 C50.2389521,25.0570981 51.5809309,22.3993372 53.8468348,20.2455 C54.1291042,18.400627 54.0918373,16.347426 53.7099433,14.0896104 C53.6132707,13.5348116 53.4937213,13.0004372 53.3571988,12.4738611 C50.6485194,11.8135986 48.01216,12.2655331 46.4399379,15.0105615 C46.0443917,15.6964472 45.8278007,16.3429697 45.7425664,16.962755 C45.732235,17.0225425 45.7270692,17.0763885 45.7156309,17.1268922 C45.5208096,19.1151068 46.7351216,20.8084685 48.4885127,22.3436345" id="Fill-22" fill="#FF6595"></path>
                    <path d="M22.5997956,26.334175 C25.5630709,27.3446218 27.7784245,29.1709272 29.2454875,31.7180254 C31.4704346,32.5550511 33.8470324,32.7786046 36.063124,32.386829 L28.6042009,26.0849983 C29.1185585,25.2327472 30.3070419,22.7788582 28.9049193,20.4426875 C28.874294,20.3981254 28.8455136,20.3398232 28.8178401,20.2956324 C28.5355707,19.859666 28.1566287,19.4244424 27.6625649,19.0140993 C25.162359,16.8985112 22.4260062,17.4926732 20.0423978,19.1864062 C20.0815096,19.464177 20.1239423,19.7530882 20.1715407,20.0379146 C20.6061987,22.5070291 21.4607555,24.5999647 22.5997956,26.334175" id="Fill-23" fill="#FF6595"></path>
                    <path d="M31.7851742,11.9302029 C33.003176,11.3219295 34.4071434,10.9041594 35.8188595,10.6583249 C37.1202506,10.4240022 38.4685021,10.3293077 39.7274606,10.4340287 C41.8959538,6.97563455 44.6942953,4.72004707 47.7940931,3.57851334 C44.2732895,0.833484927 39.5057038,-0.234892609 34.0794895,0.729135227 C28.6185911,1.70059009 24.2288406,4.50949092 21.8374837,8.71838595 C25.1874496,8.5854422 28.6042009,9.63562353 31.7851742,11.9302029" id="Fill-24" fill="#FF6595"></path>
                    <path d="M17.1831747,21.8883579 C18.0392074,20.8645425 19.0085169,19.9235385 20.0423978,19.1864062 C19.4988908,15.1375636 20.1988452,11.5989576 21.8374837,8.71838595 C17.3942311,8.89514914 13.0587205,11.1537074 9.51171941,15.40865 C5.95180402,19.6817888 4.38659247,24.6757204 5.24225621,29.4427563 C7.71921641,27.1708294 11.0097767,25.7752914 14.9157949,25.4711547 C15.4593019,24.2189583 16.2647844,22.9901571 17.1831747,21.8883579" id="Fill-25" fill="#FF6595"></path>
                    <path d="M17.069898,42.4463629 C19.9914786,41.3037151 22.8529156,41.272893 25.6010758,42.2714565 C27.8452099,41.4741654 29.8070745,40.1075928 31.2538436,38.3700403 L21.5090918,38.3700403 C21.3316126,37.1757747 20.419864,33.5599276 16.2758538,33.5599276 C13.0089083,33.5543573 11.2909391,35.7835789 10.5474452,38.6229305 C10.7599775,38.8145477 10.9773065,39.0046796 11.1986942,39.1944401 C13.104105,40.8005342 15.0910603,41.853315 17.069898,42.4463629" id="Fill-26" fill="#FF6595"></path>
                    <path d="M34.3595451,22.6373734 L36.063124,32.386829 C37.4999306,30.2404188 38.4116793,28.0925232 38.7777071,25.9858476 C37.4298245,23.5876612 36.7630783,20.6807237 37.1202506,17.5624872 C36.1609036,15.9716185 34.8218765,14.421227 33.0858274,12.9451058 C32.6570731,12.5744973 32.224629,12.2439947 31.7851742,11.9302029 C29.2853373,13.1746009 27.5618335,15.2263165 28.1060784,18.3501232 C28.2389111,19.1225338 28.4839136,19.7616293 28.8178401,20.2956324 C28.8495724,20.3398232 28.8772459,20.3906983 28.9049193,20.4426875 C30.0225586,22.0929724 32.0386632,22.5968961 34.3595451,22.6373734" id="Fill-27" fill="#FF6595"></path>
                    <path id="Fill-28" fill="#FF6595" d="M18.2915895,51.153807 C18.3476744,51.1270697 18.4133528,51.1111016 18.463534,51.0799081 C18.4081871,51.1029318 18.3476744,51.1270697 18.2915895,51.153807"></path>
                    <path id="Fill-29" fill="#FF6595" d="M61.4393285,57.9744153 C61.393575,57.9380229 61.3529872,57.8979169 61.3083407,57.8670948 C61.3529872,57.8979169 61.393575,57.9435931 61.4393285,57.9744153"></path>
                    <path id="Fill-30" fill="#FF6595" d="M46.6698122,66.9392057 C46.6616946,66.8719912 46.6509942,66.8181452 46.6329142,66.7572436 C46.6465665,66.8181452 46.6616946,66.8719912 46.6698122,66.9392057"></path>
                    <path id="Fill-31" fill="#FF6595" d="M28.8178401,20.2956324 C28.8455136,20.3398232 28.874294,20.3981254 28.9049193,20.4426875 C28.8772459,20.3906983 28.8495724,20.3398232 28.8178401,20.2956324"></path>
                    <path id="Fill-32" fill="#FF6595" d="M67.0400701,41.5569767 L66.8603771,41.5569767 L67.0400701,41.5569767"></path>
                    <path id="Fill-33" fill="#FF6595" d="M60.7069039,25.4711547 C60.7471227,25.435505 60.7932451,25.3976272 60.8393676,25.3586353 C60.7932451,25.3976272 60.7471227,25.4325342 60.7069039,25.4711547"></path>
                    <path id="Fill-34" fill="#FF6595" d="M45.7425664,16.962755 C45.732235,17.0225425 45.7233794,17.0763885 45.7156309,17.1268922 C45.7270692,17.0763885 45.732235,17.0225425 45.7425664,16.962755"></path>
                    <path d="M16.8429755,52.0677024 C17.3351943,51.6569879 17.8178197,51.3569361 18.2915895,51.153807 C17.7163503,51.3918431 17.050342,51.520702 16.2758538,51.520702 C13.1288266,51.520702 11.4152853,49.4463339 10.6330485,46.7640639 C7.83950376,49.5142912 6.20861384,52.7138535 5.76177951,56.060471 C8.29371768,58.1879423 11.6318763,59.4917565 15.6910211,59.6529229 C14.4449769,57.0033318 14.3412937,54.181805 16.8429755,52.0677024" id="Fill-35" fill="url(#linearGradient-1)"></path>
                    <path d="M18.463534,51.0799081 C20.9973171,50.111424 23.1853662,51.7089771 23.9277532,52.3696109 L31.391473,46.0651808 L21.5544763,46.0651808 C21.1172354,48.3590175 20.2689513,50.2670202 18.463534,51.0799081" id="Fill-36" fill="url(#linearGradient-1)"></path>
                    <path d="M23.1307572,58.3647055 C25.9896113,57.118822 28.1566287,55.0838172 29.5521096,52.7138535 C26.809853,53.7280138 24.6406218,55.6040803 23.1307572,58.3647055" id="Fill-37" fill="url(#linearGradient-1)"></path>
                    <path d="M29.1030614,65.8830828 C29.8207267,61.7766807 33.5226993,61.5029948 34.7189312,61.5252759 L36.4092269,51.8797986 L36.4092269,51.8745997 L28.874294,58.2358466 C30.3841586,60.9715912 30.8974093,63.6434634 28.313814,65.8277515 C25.904377,67.8653558 23.2691246,67.3851986 20.9500877,65.831465 C20.5737285,69.7551622 21.3699865,73.2555191 23.1632274,76.1089821 C26.4585844,76.1011837 29.8495072,74.9377402 33.0618437,72.4407745 C30.4107252,71.2082597 28.5355707,69.1223797 29.1030614,65.8830828" id="Fill-38" fill="url(#linearGradient-1)"></path>
                    <path d="M37.9397543,66.6372972 C39.3363422,63.8276536 39.6913006,60.8720691 39.249263,58.1600909 C37.7869968,60.7031043 37.3342588,63.5450553 37.9397543,66.6372972" id="Fill-39" fill="url(#linearGradient-1)"></path>
                    <path d="M22.5997956,26.334175 C24.311861,28.9551721 26.6799722,30.7454565 29.2454875,31.7180254 C27.7784245,29.1709272 25.5630709,27.3446218 22.5997956,26.334175" id="Fill-51" fill="url(#linearGradient-1)"></path>
                    <path d="M10.5474452,38.6229305 C11.2909391,35.7835789 13.0089083,33.5543573 16.2758538,33.5599276 C20.419864,33.5599276 21.3316126,37.1757747 21.5090918,38.3700403 L31.2538436,38.3700403 L23.7222316,32.0132496 C21.3102118,33.9810399 18.772001,34.9491526 16.1906195,32.7659786 C13.7771238,30.7339446 13.792621,28.0375632 14.9157949,25.4711547 C11.0097767,25.7752914 7.71921641,27.1708294 5.24225621,29.4427563 C5.82192319,32.7147322 7.54432006,35.8667615 10.5474452,38.6229305" id="Fill-55" fill="url(#linearGradient-1)"></path>
                    <path d="M17.069898,42.4463629 C20.0612158,43.3465183 23.0189564,43.186466 25.6010758,42.2714565 C22.8529156,41.272893 19.9914786,41.3037151 17.069898,42.4463629" id="Fill-56" fill="url(#linearGradient-1)"></path>
                    <path d="M28.9049193,20.4426875 C30.3070419,22.7788582 29.1185585,25.2327472 28.6042009,26.0849983 L36.063124,32.386829 L34.3595451,22.6373734 C32.0386632,22.5968961 30.0225586,22.0929724 28.9049193,20.4426875" id="Fill-58" fill="url(#linearGradient-1)"></path>
                    <path d="M20.0423978,19.1864062 C22.4260062,17.4926732 25.162359,16.8985112 27.6625649,19.0140993 C28.1566287,19.4244424 28.5355707,19.859666 28.8178401,20.2956324 C28.4839136,19.7616293 28.2389111,19.1225338 28.1060784,18.3501232 C27.5618335,15.2263165 29.2853373,13.1746009 31.7851742,11.9302029 C28.6042009,9.63562353 25.1874496,8.5854422 21.8374837,8.71838595 C20.1988452,11.5989576 19.4988908,15.1375636 20.0423978,19.1864062" id="Fill-59" fill="url(#linearGradient-1)"></path>
                    <path d="M54.5371957,70.9951041 C51.723726,71.7645438 48.9504752,71.3772245 47.3184783,68.5289604 C46.9945142,67.9752757 46.7897306,67.4435007 46.6698122,66.9392057 C46.798955,67.5411661 46.8137142,68.22928 46.6768228,69.0013192 C46.1329468,72.1251259 43.8076373,73.4627331 41.0384452,73.7668698 C43.2560127,77.0143364 46.1041664,79.1845131 49.2925193,80.212042 C51.814864,78.0708307 53.6767352,74.9878727 54.5371957,70.9951041" id="Fill-40" fill="url(#linearGradient-1)"></path>
                    <path d="M46.6329142,66.7572436 C46.111177,64.0809152 48.0649241,62.1892519 48.8386744,61.5635251 L43.9699883,53.075921 L42.2634575,62.8209204 C44.4319508,63.6594315 46.1488129,64.8314161 46.6329142,66.7572436" id="Fill-41" fill="url(#linearGradient-1)"></path>
                    <path d="M54.5659761,63.3931727 C53.842776,60.3395514 52.2273832,57.8418429 50.1522418,56.0523012 C50.6640166,58.942528 52.1296036,61.4253824 54.5659761,63.3931727" id="Fill-42" fill="url(#linearGradient-1)"></path>
                    <path d="M61.3083407,57.8670948 C59.1970393,56.1581364 59.4815226,53.4402166 59.6778197,52.4579925 L50.5204835,49.1054335 L55.4386129,57.6747348 C57.6351486,56.9138361 59.7006965,56.6995665 61.3083407,57.8670948" id="Fill-43" fill="url(#linearGradient-1)"></path>
                    <path d="M70.0597994,55.9995694 C68.3993911,58.4081536 66.0301729,59.9061845 62.9565727,58.7835897 C62.3580877,58.5607789 61.8547995,58.2818941 61.4393285,57.9744153 C61.9333922,58.3606206 62.3769057,58.8745707 62.770238,59.5522867 C64.3424601,62.2988006 63.4192731,64.8254744 61.4946754,66.8567658 C65.2645402,67.9095465 68.835156,67.7279558 71.9360607,66.4519929 C72.4983857,63.1733327 71.9534028,59.6139311 70.0597994,55.9995694" id="Fill-44" fill="url(#linearGradient-1)"></path>
                    <path d="M65.2357598,50.152644 C62.732602,48.2851186 59.8933038,47.4180134 57.156213,47.3871913 C59.400716,49.2703134 62.1038608,50.2239434 65.2357598,50.152644" id="Fill-45" fill="url(#linearGradient-1)"></path>
                    <path d="M72.3788363,34.4597117 C72.6459775,37.3844741 71.7877309,40.0689722 68.7185584,41.1956519 C68.1130629,41.4117783 67.5551657,41.5231837 67.0400701,41.5569767 C67.6606939,41.5320962 68.3314988,41.6442442 69.0668752,41.9049328 C72.0246158,42.9907638 72.9256641,45.5211512 72.7503987,48.3248532 C76.3095762,46.6942498 78.9263797,44.2459311 80.4934361,41.2572962 C78.8249103,38.3852657 76.1354178,36.0082464 72.3788363,34.4597117" id="Fill-46" fill="url(#linearGradient-1)"></path>
                    <path d="M62.1625285,38.4725332 L53.0066682,41.8243496 L62.2462869,45.2136724 C63.4432568,43.208747 64.8867051,41.708488 66.8603771,41.5569767 C64.1509597,41.6074805 62.6385122,39.3500362 62.1625285,38.4725332" id="Fill-47" fill="url(#linearGradient-1)"></path>
                    <path d="M56.9968138,36.2210306 C59.9169185,36.2113755 62.5920208,35.1949871 64.9542283,33.1146774 C61.8396713,33.3022098 59.1106981,34.4701095 56.9968138,36.2210306" id="Fill-48" fill="url(#linearGradient-1)"></path>
                    <path d="M60.7069039,25.4711547 C58.658698,27.265524 56.0562848,26.5113096 55.1334667,26.1484994 L50.2658876,34.6394457 L59.5047683,31.2575499 C59.1413234,28.9510873 59.2863324,26.864836 60.7069039,25.4711547" id="Fill-49" fill="url(#linearGradient-1)"></path>
                    <path d="M60.4010198,16.4729427 C62.4680436,18.5331994 63.5259082,21.1467695 61.8931734,23.9887206 C61.5721611,24.5557739 61.2183097,25.0006527 60.8393676,25.3586353 C61.3013301,24.9416079 61.8857938,24.5825112 62.6101008,24.3155097 C65.576328,23.2326494 67.8846645,24.5884528 69.5365862,26.8455257 C71.2239301,23.2954078 71.6689195,19.726351 70.9523611,16.4324654 C67.8455526,15.3076425 64.2682952,15.2229744 60.4010198,16.4729427" id="Fill-50" fill="url(#linearGradient-1)"></path>
                    <path d="M53.8468348,20.2455 C51.5809309,22.3993372 50.2389521,25.0570981 49.7367708,27.7664768 C51.9687285,25.8681292 53.3638405,23.3496251 53.8468348,20.2455" id="Fill-52" fill="url(#linearGradient-1)"></path>
                    <path d="M39.7274606,10.4340287 C42.6364959,10.6787492 45.1138251,11.995932 45.6809468,15.2356003 C45.7923786,15.8728391 45.804186,16.4450913 45.7425664,16.962755 C45.8278007,16.3429697 46.0443917,15.6964472 46.4399379,15.0105615 C48.01216,12.2655331 50.6485194,11.8135986 53.3571988,12.4738611 C52.3838306,8.65637029 50.4407839,5.64545438 47.7940931,3.57851334 C44.6942953,4.72004707 41.8959538,6.97563455 39.7274606,10.4340287" id="Fill-53" fill="url(#linearGradient-1)"></path>
                    <path d="M37.1202506,17.5624872 C36.7630783,20.6807237 37.4298245,23.5876612 38.7777071,25.9858476 C39.2743536,23.0945068 38.7441299,20.2584973 37.1202506,17.5624872" id="Fill-60" fill="url(#linearGradient-1)"></path>
                    <path d="M45.7156309,17.1268922 C45.3005288,19.8273585 42.8191408,20.9362133 41.8778738,21.2566894 L43.5729662,30.9118218 L48.4885127,22.3436345 C46.7351216,20.8084685 45.5208096,19.1151068 45.7156309,17.1268922" id="Fill-54" fill="url(#linearGradient-1)"></path>
                </g>
            </g>
        </g>
    </g>
</svg>