<?xml version="1.0" encoding="UTF-8" standalone="no"?>
<svg width="200px" height="69px" viewBox="0 0 200 69" version="1.1" xmlns="http://www.w3.org/2000/svg" xmlns:xlink="http://www.w3.org/1999/xlink" xmlns:sketch="http://www.bohemiancoding.com/sketch/ns">
    <!-- Generator: Sketch 3.3 (11970) - http://www.bohemiancoding.com/sketch -->
    <title>CHH_logo</title>
    <desc>Created with Sketch.</desc>
    <defs></defs>
    <g id="Page-1" stroke="none" stroke-width="1" fill="none" fill-rule="evenodd" sketch:type="MSPage">
        <g id="CHH_minisite" sketch:type="MSArtboardGroup" transform="translate(-40.000000, -40.000000)" fill="#FE0056">
            <g id="header" sketch:type="MSLayerGroup" transform="translate(-169.000000, 0.000000)">
                <path d="M231.512523,51.8197397 C231.056842,48.6758395 228.513142,47.0045132 224.97381,47.0045132 C219.527484,47.0045132 217.439465,51.6511014 217.448829,56.2916667 C217.439465,60.9352434 219.527484,65.5727973 224.97381,65.5758087 C228.928249,65.5727973 231.19105,63.3804991 231.512523,59.7939233 L239.958231,59.7939233 C239.499429,67.8524261 233.366459,72.5833333 225.154835,72.5833333 C215.354568,72.5833333 209,65.3529652 209,56.2916667 C209,47.2273567 215.354568,40 225.157956,40 C232.142986,40 239.73039,44.2912431 239.958231,51.8197397 L231.512523,51.8197397 L231.512523,51.8197397 Z M240.941032,49.0556332 L248.307854,49.0556332 L248.307854,53.0150663 L248.399939,53.0150663 C249.514171,50.1411878 252.104836,48.625 255.352377,48.625 C255.941723,48.625 256.570972,48.6608861 257.157248,48.80144 L257.14804,55.5420459 C256.171936,55.2788812 255.275639,55.0964601 254.244284,55.0964601 C250.493344,55.0964601 248.531928,57.6264302 248.531928,60.4524607 L248.531928,71.625 L240.941032,71.625 L240.941032,49.0556332 L240.941032,49.0556332 Z M264.882136,61.9344783 C265.016509,65.0282962 266.882107,67.0868403 270.153934,67.0868403 C272.016407,67.0868403 273.828881,66.2616222 274.556995,64.5991827 L281.78814,64.5991827 C280.378785,69.8325662 275.335109,72.1041667 270.06331,72.1041667 C262.379047,72.1041667 257.157248,67.6479887 257.157248,60.0559818 C257.157248,53.1211485 262.922789,48.1458333 269.882063,48.1458333 C278.335065,48.1458333 282.556879,54.2554484 282.197509,61.9344783 L264.882136,61.9344783 L264.882136,61.9344783 Z M274.847666,57.7291667 C274.706762,55.1098877 272.801365,52.9375 270.13701,52.9375 C267.350966,52.9375 265.487199,54.8864421 265.019656,57.7291667 L274.847666,57.7291667 L274.847666,57.7291667 Z M284.158738,55.785853 C284.293255,52.8180684 285.751049,50.8915592 287.84389,49.7122474 C289.936732,48.5749468 292.674006,48.1458333 295.35497,48.1458333 C300.95465,48.1458333 306.363503,49.3251451 306.360374,55.7408411 L306.360374,65.6434588 C306.360374,67.5609657 306.363503,69.661521 307.280098,71.4439922 L299.493728,71.4439922 C299.212179,70.7538097 299.121458,70.0516241 299.043251,69.3104281 C297.04113,71.314958 294.081746,72.1041667 291.25688,72.1041667 C286.748981,72.1041667 283.201474,69.92259 283.201474,65.2533557 C283.201474,57.8714043 291.575968,58.4475566 296.947281,57.3972789 C298.261172,57.1332091 298.999454,56.6980941 298.999454,55.305726 C298.999454,53.5982747 296.85656,52.9471025 295.267377,52.9471025 C293.121354,52.9471025 291.766795,53.8683461 291.391397,55.785853 L284.158738,55.785853 L284.158738,55.785853 Z M294.243138,67.7916667 C297.88186,67.7916667 299.090656,65.7737373 298.90872,61.0833333 C297.838689,61.7469275 295.865145,61.8705973 294.196883,62.3019335 C292.488534,62.7000899 291.063882,63.4028964 291.063882,65.2036496 C291.063882,67.0436151 292.547124,67.7916667 294.243138,67.7916667 L294.243138,67.7916667 Z M323.004914,54.0392205 L318.286514,54.0392205 L318.286514,64.3359099 C318.286514,66.1175101 319.371097,66.5134213 321.033507,66.5134213 C321.654593,66.5134213 322.331298,66.4294401 323.004914,66.4294401 L323.004914,71.8762178 C321.617513,71.9272064 320.223932,72.1041667 318.821081,72.1041667 C312.307402,72.1041667 310.641903,70.2655793 310.641903,64.1229577 L310.641903,54.0392205 L306.788698,54.0392205 L306.788698,49.2402974 L310.641903,49.2402974 L310.641903,42.3958333 L318.286514,42.3958333 L318.286514,49.2402974 L323.004914,49.2402974 L323.004914,54.0392205 L323.004914,54.0392205 Z M324.970516,40.4791667 L332.832924,40.4791667 L332.832924,46.2291667 L324.970516,46.2291667 L324.970516,40.4791667 L324.970516,40.4791667 Z M324.970516,49.1041667 L332.832924,49.1041667 L332.832924,71.625 L324.976867,71.625 L324.970516,49.1041667 L324.970516,49.1041667 Z M350.020617,71.625 L341.14517,71.625 L333.324324,49.1041667 L341.334936,49.1041667 L345.634224,63.9887455 L345.711997,63.9887455 L350.070392,49.1041667 L357.894349,49.1041667 L350.020617,71.625 L350.020617,71.625 Z M363.658463,61.9344783 C363.792865,65.0282962 365.655749,67.0868403 368.931423,67.0868403 C370.803683,67.0868403 372.613431,66.2616222 373.341705,64.5991827 L380.57757,64.5991827 C379.158528,69.8325662 374.110614,72.1041667 368.840779,72.1041667 C361.154822,72.1041667 355.928747,67.6479887 355.928747,60.0559818 C355.928747,53.1211485 361.704936,48.1458333 368.659492,48.1458333 C377.114357,48.1458333 381.333975,54.2554484 380.968275,61.9344783 L363.658463,61.9344783 L363.658463,61.9344783 Z M373.619165,57.7291667 C373.475059,55.1098877 371.572863,52.9375 368.914914,52.9375 C366.119263,52.9375 364.2619,54.8864421 363.791155,57.7291667 L373.619165,57.7291667 L373.619165,57.7291667 Z M210.477323,76.8958333 L218.91398,76.8958333 L218.91398,88.2335885 L230.041129,88.2335885 L230.041129,76.8958333 L238.484029,76.8958333 L238.484029,108.041667 L230.041129,108.041667 L230.041129,95.2102072 L218.91398,95.2102072 L218.91398,108.041667 L210.474201,108.041667 L210.477323,76.8958333 L210.477323,76.8958333 Z M252.227802,84.5625 C259.45428,84.5625 264.528256,89.746818 264.528256,96.5641811 C264.528256,103.381544 259.45428,108.520833 252.227802,108.520833 C244.988971,108.520833 239.958231,103.381544 239.958231,96.5641811 C239.958231,89.746818 244.988971,84.5625 252.227802,84.5625 L252.227802,84.5625 Z M252.470345,102.770833 C256.02892,102.770833 257.157248,99.411083 257.157248,96.5698127 C257.157248,93.7226169 256.02892,90.3125 252.470345,90.3125 C248.90557,90.3125 247.820639,93.7226169 247.820639,96.5698127 C247.820639,99.411083 248.90557,102.770833 252.470345,102.770833 L252.470345,102.770833 Z M279.761671,90.4643554 L275.042878,90.4643554 L275.042878,100.75193 C275.042878,102.538988 276.120665,102.934779 277.785213,102.934779 C278.415209,102.934779 279.079175,102.853822 279.761671,102.853822 L279.761671,108.29895 C278.362709,108.33793 276.969925,108.520833 275.586404,108.520833 C269.073359,108.511838 267.408811,106.685801 267.408811,100.536044 L267.408811,90.4643554 L263.545455,90.4643554 L263.548543,85.6608885 L267.408811,85.6608885 L267.408811,78.8125 L275.042878,78.8125 L275.042878,85.6608885 L279.761671,85.6608885 L279.761671,90.4643554 L279.761671,90.4643554 Z M281.727273,76.8958333 L290.177357,76.8958333 L290.177357,88.2335885 L301.299503,88.2335885 L301.299503,76.8958333 L309.737101,76.8958333 L309.737101,108.041667 L301.299503,108.041667 L301.299503,95.2102072 L290.177357,95.2102072 L290.171114,108.041667 L281.727273,108.041667 L281.727273,76.8958333 L281.727273,76.8958333 Z M322.978661,84.5625 C330.212224,84.5625 335.289926,89.746818 335.289926,96.5641811 C335.289926,103.381544 330.212224,108.520833 322.978661,108.520833 C315.754363,108.520833 310.719902,103.381544 310.719902,96.5641811 C310.719902,89.746818 315.754363,84.5625 322.978661,84.5625 L322.978661,84.5625 Z M323.228916,102.770833 C326.79369,102.770833 327.918919,99.411083 327.918919,96.5698127 C327.918919,93.7255797 326.79369,90.3125 323.228916,90.3125 C319.670341,90.3125 318.58231,93.7255797 318.58231,96.5698127 C318.58231,99.411083 319.670341,102.770833 323.228916,102.770833 L323.228916,102.770833 Z M359.859951,108.344022 L352.492015,108.344022 L352.492015,105.224349 L352.399877,105.224349 C350.968673,107.548989 348.023342,109 345.342138,109 C338.692875,109 336.764128,105.224349 336.764128,99.247999 L336.764128,85.5208333 L344.362408,85.5208333 L344.362408,98.7613058 C344.362408,101.790291 345.707617,102.854365 348.115479,102.854365 C349.770885,102.854365 352.267813,101.790291 352.267813,97.7455984 L352.267813,85.5208333 L359.859951,85.5208333 L359.859951,108.344022 L359.859951,108.344022 Z M368.120153,100.397634 C368.120153,101.529359 368.614373,102.363893 369.380416,102.93726 C370.093947,103.456592 371.134899,103.723763 372.212919,103.723763 C373.680136,103.723763 375.799108,103.108369 375.799108,101.316222 C375.799108,99.5721061 373.423759,99.2208814 372.07083,98.9116835 C367.267622,97.7409342 361.253573,97.6088497 361.253573,91.49994 C361.253573,86.0394452 367.310866,84.5625 371.891675,84.5625 C377.013038,84.5625 382.3568,85.9974183 382.628621,91.8871878 L375.579798,91.8871878 C375.579798,90.9295749 375.221487,90.3231868 374.585178,89.9239313 C373.964313,89.5336816 373.102516,89.3565682 372.160408,89.3565682 C370.900145,89.3505644 368.892373,89.4886527 368.892373,91.0616595 C368.892373,93.1930235 374.00138,93.595281 377.510347,94.3337536 C382.223978,95.2583453 383.447174,98.5694645 383.447174,100.442663 C383.447174,106.51555 377.510347,108.520833 372.259252,108.520833 C366.727068,108.520833 361.062062,106.728686 360.842752,100.397634 L368.120153,100.397634 L368.120153,100.397634 Z M391.656264,98.3533261 C391.799995,101.451309 393.665363,103.495617 396.933663,103.495617 C398.799032,103.495617 400.608158,102.676093 401.336183,101.013028 L408.566438,101.013028 C407.151007,106.254383 402.111076,108.520833 396.846175,108.520833 C389.156608,108.520833 383.935452,104.06298 383.938576,96.4741234 C383.935452,89.5336816 389.706533,84.5625 396.649327,84.5625 C405.107539,84.5625 409.338207,90.6654059 408.978881,98.3533261 L391.656264,98.3533261 L391.656264,98.3533261 Z M401.628993,94.1458333 C401.494494,91.5242717 399.576287,89.3541667 396.924742,89.3541667 C394.129091,89.3541667 392.271728,91.2907597 391.800983,94.1458333 L401.628993,94.1458333 L401.628993,94.1458333 Z M383.447174,43.3541667 L383.447174,43.9235329 L381.815982,43.9235329 L381.815982,48.1458333 L381.159268,48.1458333 L381.159268,43.9235329 L379.515971,43.9235329 L379.515971,43.3541667 L383.447174,43.3541667 L383.447174,43.3541667 Z M383.938575,43.3541667 L384.93098,43.3541667 L386.400379,47.4116505 L387.866578,43.3541667 L388.85258,43.3541667 L388.85258,48.1458333 L388.189909,48.1458333 L388.189909,45.3199786 C388.189909,45.2210887 388.189909,45.0562721 388.199513,44.834519 C388.199513,44.6037758 388.202715,44.3670393 388.202715,44.1003361 L386.739718,48.1458333 L386.051437,48.1458333 L384.572434,44.1003361 L384.572434,44.2471727 C384.572434,44.370036 384.582037,44.5468392 384.58844,44.789569 C384.594843,45.0322988 384.601245,45.209102 384.601245,45.3199786 L384.601245,48.1458333 L383.938575,48.1458333 L383.938575,43.3541667 L383.938575,43.3541667 Z" id="CHH_logo" sketch:type="MSShapeGroup"></path>
            </g>
        </g>
    </g>
</svg>